# xmcd
#
# Track frame offsets:
#	150
#	1597
#	27022
#	48922
#	68097
#	91597
#	97422
#	119797
#	137197
#	148597
#	151727
#	167722
#	185197
#	201997
#	204772
#	227287
#	242572
#	244897
#	260677
#	281442
#	299197
#
# Disc length: 4275 seconds
#
# Revision: 0
# Processed by: cddbd v1.5.2PL0 Copyright (c) Steve Scherf et al.
# Submitted via: EasyCDDAExtractor 11.0.2.1
#
DISCID=2f10b115
DTITLE=G-Rock and Juan - Dirty Glove
DYEAR=2002
DGENRE=Rap
TTITLE0=Intro
TTITLE1=What You Lookin At (Feat. Richie Rich, Blade and B-Legit)
TTITLE2=Act A Fool (Feat. Baby L)
TTITLE3=Flyin Saucer (Feat. Sal Duche, Blade and Baby L)
TTITLE4=Liars, Liars (Feat. Blade, Jesse James, Baby L and Vic)
TTITLE5=Skit (Feat. Foolish)
TTITLE6=Ghetto Celeb
TTITLE7=Chips Or Change (Feat. Lil Cuz, Blade and Pook)
TTITLE8=Icewoods (Feat. Baby L)
TTITLE9=Skit (Feat. Foolish)
TTITLE10=E-Song (Feat. Lil Cuz and Pook)
TTITLE11=Stop Snitchin (Feat. Baby L)
TTITLE12=Cant Explain (Feat. Baby L and Richie Rich)
TTITLE13=Skit (Feat. Foolish)
TTITLE14=Pussy Pass (Feat. E-40, Fat Mike and Vic)
TTITLE15=Come In The Millenium Bossy (Feat. O-Dog)
TTITLE16=Skit (Feat. Foolish)
TTITLE17=Aint No Thang (Feat. Lil Cuz)
TTITLE18=How Many Niggas (Feat. Blade, O-Dog, Kado and Calhoun)
TTITLE19=Things We Do (Feat. Rook and Pook)
TTITLE20=D-Shit (Feat. Dirty Glove and Eastside Chedda Boyz)
EXTD=
EXTT0=
EXTT1=
EXTT2=
EXTT3=
EXTT4=
EXTT5=
EXTT6=
EXTT7=
EXTT8=
EXTT9=
EXTT10=
EXTT11=
EXTT12=
EXTT13=
EXTT14=
EXTT15=
EXTT16=
EXTT17=
EXTT18=
EXTT19=
EXTT20=
PLAYORDER=
